<svg width="84" height="28" viewBox="0 0 84 28" fill="none" xmlns="http://www.w3.org/2000/svg">
<path d="M10.5255 26.7733H7.25598V5.09949L0.699341 7.50769V4.55457L10.0157 1.05652H10.5255V26.7733ZM36.1017 15.8573C36.1017 19.6659 35.4513 22.496 34.1505 24.3475C32.8497 26.1991 30.8165 27.1249 28.0509 27.1249C25.3204 27.1249 23.299 26.2225 21.9865 24.4178C20.674 22.6014 19.9943 19.8944 19.9474 16.2968V11.955C19.9474 8.19324 20.5978 5.39832 21.8986 3.57019C23.1993 1.74207 25.2384 0.828003 28.0157 0.828003C30.7697 0.828003 32.797 1.71277 34.0978 3.4823C35.3986 5.24011 36.0665 7.95886 36.1017 11.6385V15.8573ZM32.8497 11.41C32.8497 8.65613 32.463 6.65222 31.6896 5.39832C30.9161 4.13269 29.6915 3.49988 28.0157 3.49988C26.3517 3.49988 25.1388 4.12683 24.3771 5.38074C23.6154 6.63464 23.2228 8.56238 23.1993 11.1639V16.3671C23.1993 19.1327 23.5978 21.1776 24.3947 22.5018C25.2032 23.8143 26.422 24.4706 28.0509 24.4706C29.6564 24.4706 30.8458 23.8495 31.6193 22.6073C32.4044 21.3651 32.8146 19.4081 32.8497 16.7362V11.41ZM56.3165 15.8573C56.3165 19.6659 55.6661 22.496 54.3654 24.3475C53.0646 26.1991 51.0314 27.1249 48.2657 27.1249C45.5353 27.1249 43.5138 26.2225 42.2013 24.4178C40.8888 22.6014 40.2091 19.8944 40.1622 16.2968V11.955C40.1622 8.19324 40.8126 5.39832 42.1134 3.57019C43.4142 1.74207 45.4532 0.828003 48.2306 0.828003C50.9845 0.828003 53.0118 1.71277 54.3126 3.4823C55.6134 5.24011 56.2814 7.95886 56.3165 11.6385V15.8573ZM53.0646 11.41C53.0646 8.65613 52.6779 6.65222 51.9044 5.39832C51.131 4.13269 49.9064 3.49988 48.2306 3.49988C46.5665 3.49988 45.3536 4.12683 44.5919 5.38074C43.8302 6.63464 43.4376 8.56238 43.4142 11.1639V16.3671C43.4142 19.1327 43.8126 21.1776 44.6095 22.5018C45.4181 23.8143 46.6368 24.4706 48.2657 24.4706C49.8712 24.4706 51.0607 23.8495 51.8341 22.6073C52.6193 21.3651 53.0294 19.4081 53.0646 16.7362V11.41ZM60.2013 6.10144C60.2013 4.56628 60.6876 3.30066 61.6603 2.30457C62.6447 1.30847 63.9044 0.810425 65.4396 0.810425C66.9982 0.810425 68.2579 1.31433 69.2189 2.32214C70.1915 3.31824 70.6779 4.61316 70.6779 6.20691V7.45496C70.6779 9.00183 70.1857 10.2675 69.2013 11.2518C68.2286 12.2245 66.9865 12.7108 65.4747 12.7108C63.9513 12.7108 62.6915 12.2245 61.6954 11.2518C60.6993 10.2675 60.2013 8.96082 60.2013 7.33191V6.10144ZM62.6271 7.45496C62.6271 8.36902 62.8849 9.12488 63.4005 9.72253C63.9161 10.3085 64.6075 10.6014 65.4747 10.6014C66.3068 10.6014 66.9747 10.3143 67.4786 9.74011C67.9943 9.16589 68.2521 8.38074 68.2521 7.38464V6.10144C68.2521 5.18738 68.0001 4.43152 67.4962 3.83386C66.9923 3.23621 66.3068 2.93738 65.4396 2.93738C64.5724 2.93738 63.8868 3.23621 63.3829 3.83386C62.879 4.43152 62.6271 5.21082 62.6271 6.17175V7.45496ZM72.6642 20.4979C72.6642 18.9628 73.1505 17.703 74.1232 16.7186C75.1075 15.7225 76.3673 15.2245 77.9025 15.2245C79.4376 15.2245 80.6974 15.7167 81.6818 16.701C82.6661 17.6854 83.1583 18.9921 83.1583 20.621V21.869C83.1583 23.4042 82.6661 24.6698 81.6818 25.6659C80.7091 26.6503 79.4611 27.1425 77.9376 27.1425C76.4142 27.1425 75.1544 26.6561 74.1583 25.6835C73.1622 24.6991 72.6642 23.3925 72.6642 21.7635V20.4979ZM75.09 21.869C75.09 22.7948 75.3478 23.5565 75.8634 24.1542C76.379 24.7401 77.0704 25.0331 77.9376 25.0331C78.7814 25.0331 79.4552 24.746 79.9591 24.1718C80.463 23.5858 80.715 22.7948 80.715 21.7987V20.4979C80.715 19.5721 80.4572 18.8163 79.9415 18.2303C79.4376 17.6444 78.7579 17.3514 77.9025 17.3514C77.0704 17.3514 76.3907 17.6444 75.8634 18.2303C75.3478 18.8046 75.09 19.5839 75.09 20.5682V21.869ZM66.213 24.8397L64.3673 23.6796L76.8654 3.67566L78.7111 4.83582L66.213 24.8397Z" fill="white"/>
</svg>
