<svg width="145" height="28" viewBox="0 0 145 28" fill="none" xmlns="http://www.w3.org/2000/svg">
<path d="M10.6145 26.7733H7.34497V5.09949L0.78833 7.50769V4.55457L10.1047 1.05652H10.6145V26.7733ZM36.1907 15.8573C36.1907 19.6659 35.5403 22.496 34.2395 24.3475C32.9387 26.1991 30.9055 27.1249 28.1399 27.1249C25.4094 27.1249 23.3879 26.2225 22.0754 24.4178C20.7629 22.6014 20.0833 19.8944 20.0364 16.2968V11.955C20.0364 8.19324 20.6868 5.39832 21.9875 3.57019C23.2883 1.74207 25.3274 0.828003 28.1047 0.828003C30.8586 0.828003 32.886 1.71277 34.1868 3.4823C35.4875 5.24011 36.1555 7.95886 36.1907 11.6385V15.8573ZM32.9387 11.41C32.9387 8.65613 32.552 6.65222 31.7786 5.39832C31.0051 4.13269 29.7805 3.49988 28.1047 3.49988C26.4407 3.49988 25.2278 4.12683 24.4661 5.38074C23.7043 6.63464 23.3118 8.56238 23.2883 11.1639V16.3671C23.2883 19.1327 23.6868 21.1776 24.4836 22.5018C25.2922 23.8143 26.511 24.4706 28.1399 24.4706C29.7454 24.4706 30.9348 23.8495 31.7083 22.6073C32.4934 21.3651 32.9036 19.4081 32.9387 16.7362V11.41ZM40.5852 25.0682C40.5852 24.5057 40.7493 24.037 41.0774 23.662C41.4172 23.287 41.9211 23.0995 42.5891 23.0995C43.2571 23.0995 43.761 23.287 44.1008 23.662C44.4524 24.037 44.6282 24.5057 44.6282 25.0682C44.6282 25.6073 44.4524 26.0585 44.1008 26.4218C43.761 26.785 43.2571 26.9667 42.5891 26.9667C41.9211 26.9667 41.4172 26.785 41.0774 26.4218C40.7493 26.0585 40.5852 25.6073 40.5852 25.0682ZM40.6028 9.54675C40.6028 8.98425 40.7668 8.5155 41.095 8.1405C41.4348 7.7655 41.9387 7.578 42.6067 7.578C43.2747 7.578 43.7786 7.7655 44.1184 8.1405C44.47 8.5155 44.6458 8.98425 44.6458 9.54675C44.6458 10.0858 44.47 10.537 44.1184 10.9003C43.7786 11.2635 43.2747 11.4452 42.6067 11.4452C41.9387 11.4452 41.4348 11.2635 41.095 10.9003C40.7668 10.537 40.6028 10.0858 40.6028 9.54675ZM53.804 12.3944H56.2473C57.7825 12.371 58.9895 11.9667 59.8684 11.1815C60.7473 10.3964 61.1868 9.33582 61.1868 7.99988C61.1868 4.99988 59.6926 3.49988 56.7043 3.49988C55.2981 3.49988 54.1731 3.90417 53.3293 4.71277C52.4973 5.50964 52.0813 6.57019 52.0813 7.89441H48.8293C48.8293 5.86707 49.5676 4.18542 51.0442 2.84949C52.5325 1.50183 54.4192 0.828003 56.7043 0.828003C59.1184 0.828003 61.011 1.46667 62.3821 2.74402C63.7532 4.02136 64.4387 5.79675 64.4387 8.07019C64.4387 9.18347 64.0754 10.2616 63.3489 11.3046C62.634 12.3475 61.6555 13.1268 60.4133 13.6425C61.8196 14.0878 62.9036 14.826 63.6653 15.8573C64.4387 16.8885 64.8254 18.1483 64.8254 19.6366C64.8254 21.9335 64.0754 23.7557 62.5754 25.1034C61.0754 26.451 59.1243 27.1249 56.7219 27.1249C54.3196 27.1249 52.3625 26.4745 50.8508 25.1737C49.3508 23.8729 48.6008 22.1561 48.6008 20.0233H51.8704C51.8704 21.371 52.3098 22.4491 53.1887 23.2577C54.0676 24.0663 55.2454 24.4706 56.7219 24.4706C58.2922 24.4706 59.4934 24.0604 60.3254 23.2401C61.1575 22.4198 61.5735 21.2421 61.5735 19.7069C61.5735 18.2186 61.1165 17.076 60.2024 16.2792C59.2883 15.4823 57.97 15.0721 56.2473 15.0487H53.804V12.3944ZM85.3391 15.8573C85.3391 19.6659 84.6887 22.496 83.3879 24.3475C82.0872 26.1991 80.054 27.1249 77.2883 27.1249C74.5579 27.1249 72.5364 26.2225 71.2239 24.4178C69.9114 22.6014 69.2317 19.8944 69.1848 16.2968V11.955C69.1848 8.19324 69.8352 5.39832 71.136 3.57019C72.4368 1.74207 74.4758 0.828003 77.2532 0.828003C80.0071 0.828003 82.0344 1.71277 83.3352 3.4823C84.636 5.24011 85.304 7.95886 85.3391 11.6385V15.8573ZM82.0872 11.41C82.0872 8.65613 81.7004 6.65222 80.927 5.39832C80.1536 4.13269 78.929 3.49988 77.2532 3.49988C75.5891 3.49988 74.3762 4.12683 73.6145 5.38074C72.8528 6.63464 72.4602 8.56238 72.4368 11.1639V16.3671C72.4368 19.1327 72.8352 21.1776 73.6321 22.5018C74.4407 23.8143 75.6594 24.4706 77.2883 24.4706C78.8938 24.4706 80.0833 23.8495 80.8567 22.6073C81.6418 21.3651 82.052 19.4081 82.0872 16.7362V11.41ZM110.511 26.7733C110.323 26.3983 110.171 25.7303 110.054 24.7694C108.542 26.3397 106.738 27.1249 104.64 27.1249C102.765 27.1249 101.224 26.5975 100.017 25.5428C98.8215 24.4764 98.2239 23.1288 98.2239 21.4999C98.2239 19.5194 98.9739 17.9843 100.474 16.8944C101.986 15.7928 104.107 15.2421 106.837 15.2421H110.001V13.7479C110.001 12.6112 109.661 11.7089 108.982 11.0409C108.302 10.3612 107.3 10.0214 105.976 10.0214C104.816 10.0214 103.843 10.3143 103.058 10.9003C102.273 11.4862 101.88 12.1952 101.88 13.0272H98.6106C98.6106 12.078 98.9446 11.1639 99.6125 10.285C100.292 9.39441 101.206 8.69128 102.355 8.17566C103.515 7.66003 104.786 7.40222 106.169 7.40222C108.361 7.40222 110.077 7.953 111.32 9.05457C112.562 10.1444 113.206 11.6503 113.253 13.5721V22.326C113.253 24.0721 113.476 25.4608 113.921 26.4921V26.7733H110.511ZM105.115 24.2948C106.134 24.2948 107.101 24.0311 108.015 23.5038C108.929 22.9764 109.591 22.2909 110.001 21.4471V17.5448H107.452C103.468 17.5448 101.476 18.7108 101.476 21.0428C101.476 22.0624 101.816 22.8593 102.495 23.4335C103.175 24.0077 104.048 24.2948 105.115 24.2948ZM121.409 7.75378L121.497 9.86316C122.892 8.22253 124.773 7.40222 127.14 7.40222C129.8 7.40222 131.611 8.42175 132.572 10.4608C133.204 9.54675 134.025 8.80847 135.032 8.24597C136.052 7.68347 137.253 7.40222 138.636 7.40222C142.808 7.40222 144.929 9.61121 144.999 14.0292V26.7733H141.747V14.2225C141.747 12.8632 141.437 11.8495 140.816 11.1815C140.195 10.5018 139.152 10.162 137.687 10.162C136.48 10.162 135.478 10.5253 134.681 11.2518C133.884 11.9667 133.421 12.9335 133.292 14.1522V26.7733H130.023V14.3104C130.023 11.5448 128.669 10.162 125.962 10.162C123.829 10.162 122.37 11.0702 121.585 12.8866V26.7733H118.333V7.75378H121.409Z" fill="white"/>
</svg>
