<svg width="302" height="52" viewBox="0 0 302 52" fill="none" xmlns="http://www.w3.org/2000/svg">
<path d="M30.9743 25.016C33.5183 25.016 35.6783 25.544 37.4543 26.6C39.2783 27.608 40.6463 28.928 41.5583 30.56C42.4703 32.192 42.9263 33.92 42.9263 35.744C42.9263 40.208 41.0063 43.712 37.1663 46.256C33.3743 48.752 27.8063 50 20.4623 50H0.662313V47.48L4.19031 47.408V4.352L0.662313 4.28V1.76L14.5583 1.904L25.0703 1.04C29.6783 1.04 33.2063 2.048 35.6543 4.064C38.1023 6.032 39.3263 8.648 39.3263 11.912C39.3263 14.984 38.2943 17.648 36.2303 19.904C34.1663 22.112 31.1423 23.888 27.1583 25.232L30.9743 25.016ZM26.5103 14.648C26.5103 11.24 25.6223 8.672 23.8463 6.944C22.1183 5.168 19.5503 4.28 16.1423 4.28V25.016C19.6463 24.776 22.2383 23.816 23.9183 22.136C25.6463 20.408 26.5103 17.912 26.5103 14.648ZM16.1423 47.48C21.0383 47.48 24.5903 46.712 26.7983 45.176C29.0063 43.64 30.1103 41.192 30.1103 37.832C30.1103 34.472 29.1023 31.928 27.0863 30.2C25.1183 28.472 22.1903 27.608 18.3023 27.608H16.1423V47.48ZM98.8534 47.48V50H81.5014L71.7094 30.704L71.9254 30.56C70.8214 30.656 69.2614 30.752 67.2454 30.848V47.408L70.7734 47.48V50H51.7654V47.48L55.2934 47.408V4.352L51.7654 4.28V1.76L65.6614 1.904L76.3894 1.04C79.8454 1.04 82.7974 1.688 85.2454 2.984C87.7414 4.232 89.6134 5.936 90.8614 8.096C92.1574 10.208 92.8054 12.56 92.8054 15.152C92.8054 18.128 91.9414 20.72 90.2134 22.928C88.4854 25.136 85.8934 26.912 82.4374 28.256L95.3254 47.408L98.8534 47.48ZM67.2454 28.04C71.2294 27.8 74.3494 26.72 76.6054 24.8C78.8614 22.832 79.9894 20.192 79.9894 16.88C79.9894 14.528 79.4374 12.392 78.3334 10.472C77.2294 8.552 75.7174 7.04 73.7974 5.936C71.8774 4.832 69.6934 4.28 67.2454 4.28V28.04ZM151.942 1.76V4.28L148.414 4.352V50H146.11L136.894 43.952C135.118 46.112 132.982 47.84 130.486 49.136C127.99 50.432 125.374 51.08 122.638 51.08C117.646 51.08 113.782 49.496 111.046 46.328C108.31 43.16 106.942 38.24 106.942 31.568V4.352L103.414 4.28V1.76H122.638V4.28L119.11 4.352V29.768C119.11 34.184 120.022 37.496 121.846 39.704C123.67 41.864 126.166 42.944 129.334 42.944C132.022 42.944 134.398 42.392 136.462 41.288V4.352L132.934 4.28V1.76H151.942ZM201.808 1.76V15.728L199 15.656L198.856 12.056C193.912 8.504 189.808 5.888 186.544 4.208V47.408L192.232 47.48V50H168.904V47.48L174.592 47.408V4.208C171.328 5.888 167.224 8.504 162.28 12.056L162.136 15.656L159.328 15.728V1.76H201.808ZM257.734 1.76V4.28L254.206 4.352V50H251.902L242.686 43.952C240.91 46.112 238.774 47.84 236.278 49.136C233.782 50.432 231.166 51.08 228.43 51.08C223.438 51.08 219.574 49.496 216.838 46.328C214.102 43.16 212.734 38.24 212.734 31.568V4.352L209.206 4.28V1.76H228.43V4.28L224.902 4.352V29.768C224.902 34.184 225.814 37.496 227.638 39.704C229.462 41.864 231.958 42.944 235.126 42.944C237.814 42.944 240.19 42.392 242.254 41.288V4.352L238.726 4.28V1.76H257.734ZM279.897 9.392C279.897 10.928 280.329 12.344 281.193 13.64C282.057 14.936 283.137 16.088 284.433 17.096C285.729 18.104 287.505 19.352 289.761 20.84C292.401 22.568 294.513 24.104 296.097 25.448C297.681 26.744 299.025 28.328 300.129 30.2C301.281 32.024 301.857 34.088 301.857 36.392C301.857 38.936 301.161 41.336 299.769 43.592C298.377 45.8 296.289 47.6 293.505 48.992C290.721 50.384 287.361 51.08 283.425 51.08C274.977 51.08 268.977 47.72 265.425 41L273.561 34.736C275.865 39.488 278.457 44.096 281.337 48.56H281.409C282.801 48.56 284.097 48.2 285.297 47.48C286.497 46.712 287.457 45.728 288.177 44.528C288.897 43.328 289.257 42.056 289.257 40.712C289.257 39.272 288.825 37.952 287.961 36.752C287.145 35.504 286.113 34.424 284.865 33.512C283.617 32.552 281.913 31.4 279.753 30.056C277.161 28.424 275.073 26.984 273.489 25.736C271.905 24.488 270.537 22.976 269.385 21.2C268.281 19.376 267.729 17.288 267.729 14.936C267.729 12.296 268.473 9.896 269.961 7.736C271.497 5.528 273.657 3.8 276.441 2.552C279.273 1.304 282.585 0.679996 286.377 0.679996C290.073 0.679996 293.097 1.28 295.449 2.48C297.849 3.632 300.009 5.288 301.929 7.448L294.369 15.08C291.825 10.856 289.257 6.896 286.665 3.2C284.505 3.2 282.825 3.8 281.625 5C280.473 6.152 279.897 7.616 279.897 9.392Z" fill="white"/>
</svg>
