<svg width="101" height="101" viewBox="0 0 101 101" fill="none" xmlns="http://www.w3.org/2000/svg">
<path opacity="0.3" d="M45.7833 83.5583C47.2833 83.7667 48.7833 83.9333 50.3666 83.9333C59.1139 83.9296 67.5092 80.4877 73.7416 74.35L62.4083 54.7667L45.7833 83.5583ZM41.4499 82.6833L52.7416 63.1H19.4916C21.4182 67.8212 24.398 72.0398 28.2036 75.4338C32.0092 78.8278 36.5399 81.3074 41.4499 82.6833ZM35.9499 50.6L24.1166 30.1417C19.5336 35.9768 17.0395 43.1802 17.0333 50.6C17.0333 53.475 17.4499 56.2667 18.1166 58.9333H40.7416L35.9499 50.6ZM76.6166 71.0583C81.1996 65.2232 83.6937 58.0198 83.6999 50.6C83.6999 47.725 83.2833 44.9333 82.6166 42.2667H59.9916L76.6166 71.0583ZM57.5749 38.1H81.2416C79.313 33.3728 76.3275 29.1501 72.514 25.7555C68.7005 22.361 64.1603 19.8847 59.2416 18.5167L47.9499 38.1H57.5749ZM43.1583 38.1L54.9499 17.6C53.4499 17.3917 51.9083 17.2667 50.3666 17.2667C41.2833 17.2667 33.0333 20.9333 27.0333 26.85L38.3666 46.4333L43.1583 38.1Z" fill="#464343"/>
<path d="M50.3667 92.2667C73.3667 92.2667 92.0334 73.6 92.0334 50.6C92.0334 30.8083 78.2417 14.2667 59.7417 10.0167L59.4083 9.85001L59.3667 9.93334C56.45 9.30834 53.45 8.93334 50.3667 8.93334C27.3667 8.93334 8.70001 27.6 8.70001 50.6C8.70001 73.6 27.3667 92.2667 50.3667 92.2667ZM50.3667 83.9333C48.7833 83.9333 47.2833 83.7667 45.7833 83.5583L62.4084 54.7667L73.7417 74.35C67.5093 80.4877 59.114 83.9297 50.3667 83.9333ZM83.7 50.6C83.7 58.3083 81.0333 65.3917 76.6167 71.0583L59.95 42.2667H82.575C83.2833 44.9333 83.7 47.725 83.7 50.6ZM81.2417 38.1H47.95L59.2417 18.5167C69.2417 21.2667 77.3667 28.6 81.2417 38.1ZM50.3667 17.2667C51.9083 17.2667 53.45 17.3917 54.95 17.6L43.1584 38.1L38.3667 46.4333L27.0333 26.85C33.2449 20.7064 41.6301 17.2624 50.3667 17.2667ZM17.0333 50.6C17.0333 42.8917 19.7 35.8083 24.1167 30.1417L35.95 50.6L40.7417 58.9333H18.1167C17.45 56.2667 17.0333 53.475 17.0333 50.6ZM43.1584 63.1H52.7417L41.45 82.6833C36.5346 81.3082 31.998 78.8293 28.1855 75.4357C24.373 72.042 21.3853 67.823 19.45 63.1H43.1584Z" fill="#FFFFF7"/>
</svg>
