<svg width="71" height="71" viewBox="0 0 71 71" fill="none" xmlns="http://www.w3.org/2000/svg">
<path d="M46.1487 7.76294C46.1487 8.96606 45.1643 9.95044 43.9612 9.95044H26.4612C25.2581 9.95044 24.2737 8.96606 24.2737 7.76294V4.48169C24.2737 3.27856 25.2581 2.29419 26.4612 2.29419H43.9612C45.1643 2.29419 46.1487 3.27856 46.1487 4.48169V7.76294Z" fill="white"/>
<path d="M52.7112 6.66919H17.7112C15.3049 6.66919 13.3362 8.63794 13.3362 11.0442V63.5442C13.3362 65.9504 15.3049 67.9192 17.7112 67.9192H52.7112C55.1174 67.9192 57.0862 65.9504 57.0862 63.5442V11.0442C57.0862 8.63794 55.1174 6.66919 52.7112 6.66919ZM52.7112 58.0754C52.7112 58.6223 52.1643 59.1692 51.6174 59.1692H18.8049C18.2581 59.1692 17.7112 58.6223 17.7112 58.0754V16.5129C17.7112 15.9661 18.2581 15.4192 18.8049 15.4192H51.6174C52.1643 15.4192 52.7112 15.9661 52.7112 16.5129V58.0754Z" fill="#FEFFFF"/>
<path d="M50.5237 26.3567C50.5237 27.5598 49.5393 28.5442 48.3362 28.5442H22.0862C20.8831 28.5442 19.8987 27.5598 19.8987 26.3567V21.9817C19.8987 20.7786 20.8831 19.7942 22.0862 19.7942H48.3362C49.5393 19.7942 50.5237 20.7786 50.5237 21.9817V26.3567Z" fill="#A8D600"/>
<path d="M50.5237 39.4817C50.5237 40.6848 49.5393 41.6692 48.3362 41.6692H22.0862C20.8831 41.6692 19.8987 40.6848 19.8987 39.4817V35.1067C19.8987 33.9036 20.8831 32.9192 22.0862 32.9192H48.3362C49.5393 32.9192 50.5237 33.9036 50.5237 35.1067V39.4817Z" fill="#A8D600"/>
<path d="M50.5237 52.6067C50.5237 53.8098 49.5393 54.7942 48.3362 54.7942H22.0862C20.8831 54.7942 19.8987 53.8098 19.8987 52.6067V48.2317C19.8987 47.0286 20.8831 46.0442 22.0862 46.0442H48.3362C49.5393 46.0442 50.5237 47.0286 50.5237 48.2317V52.6067Z" fill="#A8D600"/>
</svg>
