<svg width="101" height="101" viewBox="0 0 101 101" fill="none" xmlns="http://www.w3.org/2000/svg">
<path d="M79.5333 12.6182H21.2C16.6166 12.6182 12.8666 16.3682 12.8666 20.9515V79.2848C12.8666 83.8682 16.6166 87.6182 21.2 87.6182H79.5333C84.1166 87.6182 87.8666 83.8682 87.8666 79.2848V20.9515C87.8666 16.3682 84.1166 12.6182 79.5333 12.6182ZM26.4083 31.3682H31.6166V26.1598C31.6166 24.4515 33.0333 23.0348 34.7416 23.0348C36.45 23.0348 37.8666 24.4515 37.8666 26.1598V31.3682H43.075C44.7833 31.3682 46.2 32.7848 46.2 34.4932C46.2 36.2015 44.7833 37.6182 43.075 37.6182H37.8666V42.8265C37.8666 44.5348 36.45 45.9515 34.7416 45.9515C33.0333 45.9515 31.6166 44.5348 31.6166 42.8265V37.6182H26.4083C24.7 37.6182 23.2833 36.2015 23.2833 34.4932C23.2833 32.7848 24.7 31.3682 26.4083 31.3682ZM75.3666 79.2848H21.2L79.5333 20.9515V75.1182C79.5333 77.4098 77.6583 79.2848 75.3666 79.2848ZM71.2 67.8265C71.2 66.1182 69.7833 64.7015 68.075 64.7015H53.4916C51.7833 64.7015 50.3666 66.1182 50.3666 67.8265C50.3666 69.5348 51.7833 70.9515 53.4916 70.9515H68.075C69.7833 70.9515 71.2 69.5348 71.2 67.8265Z" fill="#FFFFF7"/>
</svg>
