<svg width="61" height="61" viewBox="0 0 61 61" fill="none" xmlns="http://www.w3.org/2000/svg">
<path d="M30.6556 42.6333C34.7977 42.6333 38.1556 39.2755 38.1556 35.1333C38.1556 30.9912 34.7977 27.6333 30.6556 27.6333C26.5134 27.6333 23.1556 30.9912 23.1556 35.1333C23.1556 39.2755 26.5134 42.6333 30.6556 42.6333Z" fill="#FFFFF7"/>
<path d="M42.1556 8.55833C47.4056 9.23333 51.5806 13.3833 52.2306 18.6333C52.3306 19.4833 53.0306 20.1333 53.8806 20.1333C54.8556 20.1333 55.6556 19.2833 55.5306 18.3083C55.1177 14.9911 53.6101 11.9063 51.2463 9.5426C48.8826 7.17885 45.7978 5.67118 42.4806 5.25833C41.5056 5.13333 40.6556 5.93333 40.6556 6.90833C40.6556 7.75833 41.3056 8.45833 42.1556 8.55833ZM48.7306 18.1083C48.3621 16.6477 47.6051 15.3141 46.5399 14.249C45.4748 13.1838 44.1412 12.4268 42.6806 12.0583C41.6556 11.8083 40.6556 12.6083 40.6556 13.6833C40.6556 14.4083 41.1306 15.1083 41.8556 15.2833C43.6556 15.7333 45.0806 17.1333 45.5056 18.9333C45.6806 19.6583 46.3556 20.1333 47.1056 20.1333C48.1806 20.1333 48.9806 19.1333 48.7306 18.1083ZM43.1556 22.6333C43.1556 19.8833 40.9056 17.6333 38.1556 17.6333V12.6333C38.1556 11.2583 37.0306 10.1333 35.6556 10.1333H25.3556C23.9556 10.1333 22.6056 10.7333 21.6556 11.7583L18.5806 15.1333H10.6556C7.90558 15.1333 5.65558 17.3833 5.65558 20.1333V50.1333C5.65558 52.8833 7.90558 55.1333 10.6556 55.1333H50.6556C53.4056 55.1333 55.6556 52.8833 55.6556 50.1333V27.6333C55.6556 24.8833 53.4056 22.6333 50.6556 22.6333H43.1556ZM30.6556 47.6333C23.7556 47.6333 18.1556 42.0333 18.1556 35.1333C18.1556 28.2333 23.7556 22.6333 30.6556 22.6333C37.5556 22.6333 43.1556 28.2333 43.1556 35.1333C43.1556 42.0333 37.5556 47.6333 30.6556 47.6333Z" fill="#FFFFF7"/>
</svg>
