<svg width="61" height="61" viewBox="0 0 61 61" fill="none" xmlns="http://www.w3.org/2000/svg">
<g clip-path="url(#clip0)">
<path d="M56.4833 34.4034C55.4286 34.4034 54.54 34.042 53.8173 33.3194C53.0947 32.5967 52.7333 31.7178 52.7333 30.6826C52.7333 29.6475 53.0947 28.7588 53.8173 28.0166C54.54 27.2744 55.4189 26.9034 56.454 26.9034C57.4892 26.9034 58.3779 27.2744 59.1201 28.0166C59.8622 28.7588 60.2333 29.6475 60.2333 30.6826C60.2333 31.7178 59.872 32.5967 59.1494 33.3194C58.4267 34.042 57.538 34.4034 56.4833 34.4034ZM49.0126 15.6534C47.9775 15.6534 47.0888 15.292 46.3466 14.5694C45.6044 13.8467 45.2333 12.9678 45.2333 11.9326C45.2333 10.8975 45.6044 10.0088 46.3466 9.26663C47.0888 8.52444 47.9775 8.15335 49.0126 8.15335C50.0478 8.15335 50.9267 8.52444 51.6494 9.26663C52.372 10.0088 52.7333 10.8975 52.7333 11.9326C52.7333 12.9678 52.372 13.8467 51.6494 14.5694C50.9267 15.292 50.0478 15.6534 49.0126 15.6534ZM30.2333 49.4034C26.8349 49.4034 23.7001 48.5635 20.829 46.8838C17.9579 45.2041 15.6826 42.9287 14.0029 40.0576C12.3232 37.1866 11.4833 34.0518 11.4833 30.6534C11.4833 27.2549 12.3232 24.1201 14.0029 21.2491C15.6826 18.378 17.9579 16.1026 20.829 14.4229C23.7001 12.7432 26.8349 11.9034 30.2333 11.9034C33.6318 11.9034 36.7665 12.7432 39.6376 14.4229C42.5087 16.1026 44.7841 18.378 46.4638 21.2491C48.1435 24.1201 48.9833 27.2549 48.9833 30.6534C48.9833 34.0518 48.1435 37.1866 46.4638 40.0576C44.7841 42.9287 42.5087 45.2041 39.6376 46.8838C36.7665 48.5635 33.6318 49.4034 30.2333 49.4034ZM30.2333 8.15335C29.2177 8.15335 28.3388 7.79202 27.5966 7.06937C26.8544 6.34671 26.4833 5.4678 26.4833 4.43265C26.4833 3.39749 26.8544 2.50882 27.5966 1.76663C28.3388 1.02444 29.2177 0.653351 30.2333 0.653351C31.249 0.653351 32.1279 1.02444 32.8701 1.76663C33.6122 2.50882 33.9833 3.39749 33.9833 4.43265C33.9833 5.4678 33.6122 6.34671 32.8701 7.06937C32.1279 7.79202 31.249 8.15335 30.2333 8.15335ZM11.454 15.6534C10.4189 15.6534 9.53998 15.292 8.81732 14.5694C8.09467 13.8467 7.73334 12.9678 7.73334 11.9326C7.73334 10.8975 8.09467 10.0088 8.81732 9.26663C9.53998 8.52444 10.4189 8.15335 11.454 8.15335C12.4892 8.15335 13.3779 8.52444 14.1201 9.26663C14.8622 10.0088 15.2333 10.8975 15.2333 11.9326C15.2333 12.9678 14.8622 13.8467 14.1201 14.5694C13.3779 15.292 12.4892 15.6534 11.454 15.6534ZM3.98334 34.4034C2.96771 34.4034 2.08881 34.042 1.34662 33.3194C0.604431 32.5967 0.233337 31.7178 0.233337 30.6826C0.233337 29.6475 0.604431 28.7588 1.34662 28.0166C2.08881 27.2744 2.97748 26.9034 4.01263 26.9034C5.04779 26.9034 5.9267 27.2744 6.64935 28.0166C7.37201 28.7588 7.73334 29.6475 7.73334 30.6826C7.73334 31.7178 7.36224 32.5967 6.62006 33.3194C5.87787 34.042 4.99896 34.4034 3.98334 34.4034ZM11.454 45.6534C12.4892 45.6534 13.3779 46.0244 14.1201 46.7666C14.8622 47.5088 15.2333 48.3975 15.2333 49.4326C15.2333 50.4678 14.8622 51.3467 14.1201 52.0694C13.3779 52.792 12.4892 53.1534 11.454 53.1534C10.4189 53.1534 9.53998 52.792 8.81732 52.0694C8.09467 51.3467 7.73334 50.4678 7.73334 49.4326C7.73334 48.3975 8.09467 47.5088 8.81732 46.7666C9.53998 46.0244 10.4189 45.6534 11.454 45.6534ZM30.2333 53.1534C31.249 53.1534 32.1279 53.5244 32.8701 54.2666C33.6122 55.0088 33.9833 55.8975 33.9833 56.9326C33.9833 57.9678 33.6122 58.8467 32.8701 59.5694C32.1279 60.292 31.2392 60.6534 30.204 60.6534C29.1689 60.6534 28.29 60.292 27.5673 59.5694C26.8447 58.8467 26.4833 57.9678 26.4833 56.9326C26.4833 55.8975 26.8544 55.0088 27.5966 54.2666C28.3388 53.5244 29.2177 53.1534 30.2333 53.1534ZM49.0126 45.6534C50.0478 45.6534 50.9267 46.0244 51.6494 46.7666C52.372 47.5088 52.7333 48.3975 52.7333 49.4326C52.7333 50.4678 52.3622 51.3467 51.6201 52.0694C50.8779 52.792 49.999 53.1534 48.9833 53.1534C47.9677 53.1534 47.0888 52.792 46.3466 52.0694C45.6044 51.3467 45.2333 50.4678 45.2333 49.4326C45.2333 48.3975 45.6044 47.5088 46.3466 46.7666C47.0888 46.0244 47.9775 45.6534 49.0126 45.6534Z" fill="#FFFFF7"/>
</g>
<defs>
<clipPath id="clip0">
<rect x="0.233337" y="0.653351" width="60" height="60" fill="white"/>
</clipPath>
</defs>
</svg>
