<svg width="61" height="61" viewBox="0 0 61 61" fill="none" xmlns="http://www.w3.org/2000/svg">
<g clip-path="url(#clip0)">
<path d="M32.4095 0.638628C32.1064 0.666963 31.8119 0.754711 31.5428 0.896862C31.2737 1.03901 31.0352 1.23278 30.8409 1.46711C30.6466 1.70143 30.5005 1.97172 30.4107 2.26255C30.3209 2.55338 30.2892 2.85904 30.3176 3.16209C30.3748 3.77413 30.6728 4.33837 31.146 4.73068C31.3804 4.92493 31.6507 5.07113 31.9415 5.16092C32.2323 5.25072 32.538 5.28235 32.841 5.25401C43.0918 5.25401 51.3026 13.3609 51.3026 23.7156C51.3026 24.3276 51.5457 24.9146 51.9785 25.3473C52.4112 25.7801 52.9982 26.0232 53.6103 26.0232C54.2223 26.0232 54.8093 25.7801 55.242 25.3473C55.6748 24.9146 55.918 24.3276 55.918 23.7156C55.918 10.8963 45.5518 0.638628 32.841 0.638628C32.7688 0.635228 32.6964 0.635228 32.6241 0.638628C32.5518 0.635231 32.4794 0.635231 32.4072 0.638628H32.4095ZM32.4095 9.8694C31.7974 9.92662 31.2332 10.2246 30.8409 10.6979C30.4486 11.1711 30.2603 11.7808 30.3176 12.3929C30.3748 13.0049 30.6728 13.5691 31.146 13.9614C31.6193 14.3538 32.229 14.542 32.841 14.4848C36.5195 14.4848 38.6795 15.2717 39.981 16.5756C41.2826 17.8794 42.0718 20.0486 42.0718 23.7156C42.0718 24.3276 42.3149 24.9146 42.7477 25.3473C43.1805 25.7801 43.7675 26.0232 44.3795 26.0232C44.9915 26.0232 45.5785 25.7801 46.0113 25.3473C46.4441 24.9146 46.6872 24.3276 46.6872 23.7156C46.6872 19.3771 45.6856 15.7956 43.2256 13.3309C40.7656 10.8663 37.1979 9.8694 32.841 9.8694C32.7688 9.866 32.6964 9.866 32.6241 9.8694C32.5518 9.866 32.4794 9.866 32.4072 9.8694H32.4095ZM16.0364 12.4656C13.9364 12.454 12.1618 13.0217 10.9156 14.2679C6.61872 18.5648 0.201023 31.5317 12.6464 43.9794C24.0303 55.3656 38.0587 50.0071 42.358 45.7102C45.7849 42.2832 44.2226 34.9402 39.0395 27.6825C38.0656 28.4671 36.9141 31.0979 37.4541 32.0094C40.0179 36.334 40.7564 40.174 38.968 41.9602C36.2149 44.7132 28.521 41.5379 21.8056 34.8225C15.0879 28.1002 11.9103 20.4156 14.6679 17.6579C16.3526 15.9709 19.8626 16.504 23.8987 18.7402C24.8426 19.2617 27.5264 18.1402 28.2972 17.1525C23.8895 14.1456 19.5349 12.4863 16.0387 12.4656H16.0364ZM32.841 19.1002C30.7941 19.1002 29.0472 20.4271 28.4426 22.2732L22.2395 22.9956C21.9631 22.9832 21.6873 23.031 21.4312 23.1356C21.1751 23.2403 20.9447 23.3993 20.7561 23.6017C20.5675 23.8042 20.4251 24.0451 20.3387 24.308C20.2523 24.5708 20.2241 24.8493 20.2559 25.1241C20.2877 25.399 20.3788 25.6636 20.523 25.8998C20.6671 26.136 20.8608 26.338 21.0907 26.492C21.3206 26.646 21.5811 26.7482 21.8544 26.7915C22.1277 26.8349 22.4071 26.8184 22.6733 26.7432L28.8741 26.0971C29.2664 26.7525 29.8041 27.2902 30.4618 27.6825L29.8133 33.8832C29.7381 34.1495 29.7217 34.4289 29.765 34.7022C29.8084 34.9754 29.9106 35.236 30.0646 35.4659C30.2186 35.6958 30.4206 35.8895 30.6568 36.0336C30.8929 36.1777 31.1576 36.2689 31.4324 36.3007C31.7073 36.3325 31.9858 36.3042 32.2486 36.2179C32.5115 36.1315 32.7524 35.9891 32.9548 35.8005C33.1573 35.6119 33.3163 35.3815 33.421 35.1254C33.5256 34.8693 33.5734 34.5935 33.561 34.3171L34.2833 28.114C35.2078 27.808 36.0122 27.2182 36.5819 26.4284C37.1516 25.6387 37.4577 24.6893 37.4564 23.7156C37.4564 22.4915 36.9701 21.3175 36.1046 20.452C35.239 19.5864 34.0651 19.1002 32.841 19.1002ZM16.8303 51.5532C12.9233 53.3417 10.2718 56.7386 10.2718 60.6386H37.2418C37.2418 58.2294 35.4926 55.4163 33.3487 54.2209C31.881 54.4863 30.3095 54.6525 28.7333 54.6525C24.5218 54.6525 20.511 53.6071 16.8349 51.5532H16.8303Z" fill="#FFFFF7"/>
</g>
<defs>
<clipPath id="clip0">
<rect x="0.533325" y="0.640015" width="60" height="60" fill="white"/>
</clipPath>
</defs>
</svg>
